HIERARCHY
ROOT Hips
{
  OFFSET 0.000000 0.000000 0.000000
  CHANNELS 6 Xposition Yposition Zposition Xrotation Yrotation Zrotation
  JOINT Spine
  {
    OFFSET 0.785918 22.667751 -11.192521
    CHANNELS 3 Xrotation Yrotation Zrotation
    JOINT Chest
    {
      OFFSET 0.785918 22.667751 -11.192521
      CHANNELS 3 Xrotation Yrotation Zrotation
      JOINT Neck
      {
        OFFSET -0.660711 4.280912 -9.212176
        CHANNELS 3 Xrotation Yrotation Zrotation
        JOINT Head
        {
          OFFSET -0.391963 4.254871 -12.739320
          CHANNELS 3 Xrotation Yrotation Zrotation
          End Site
          {
            OFFSET -0.117589 1.276461 -3.821796
          }
        }
      }
      JOINT LeftCollar
      {
        OFFSET 3.000000 4.000000 0.000000
        CHANNELS 3 Xrotation Yrotation Zrotation
        JOINT LeftShoulder
        {
          OFFSET 16.621605 -2.780659 -2.297863
          CHANNELS 3 Xrotation Yrotation Zrotation
          JOINT LeftArm
          {
            OFFSET 7.570161 -18.010043 0.790673
            CHANNELS 3 Xrotation Yrotation Zrotation
            JOINT LeftForeArm
            {
              OFFSET 4.258502 -21.330331 -3.694189
              CHANNELS 3 Xrotation Yrotation Zrotation
              JOINT LeftHand
              {
                OFFSET -1.020528 -3.245478 -1.657259
                CHANNELS 3 Xrotation Yrotation Zrotation
                End Site
                {
                  OFFSET -0.306158 -0.973643 -0.497178
                }
              }
            }
          }
        }
      }
      JOINT RightCollar
      {
        OFFSET -3.000000 4.000000 0.000000
        CHANNELS 3 Xrotation Yrotation Zrotation
        JOINT RightShoulder
        {
          OFFSET -16.621605 2.780659 2.297863
          CHANNELS 3 Xrotation Yrotation Zrotation
          JOINT RightArm
          {
            OFFSET -7.047239 -26.880381 -0.525442
            CHANNELS 3 Xrotation Yrotation Zrotation
            JOINT RightForeArm
            {
              OFFSET -7.219958 -17.761464 -6.028907
              CHANNELS 3 Xrotation Yrotation Zrotation
              JOINT RightHand
              {
                OFFSET 1.362391 -2.129385 -3.788414
                CHANNELS 3 Xrotation Yrotation Zrotation
                End Site
                {
                  OFFSET 0.408717 -0.638815 -1.136524
                }
              }
            }
          }
        }
      }
    }
  }
  JOINT LeftUpLeg
  {
    OFFSET 10.014631 -0.404759 2.482655
    CHANNELS 3 Xrotation Yrotation Zrotation
    JOINT LeftLeg
    {
      OFFSET 2.113296 -38.097659 -0.269871
      CHANNELS 3 Xrotation Yrotation Zrotation
      JOINT LeftFoot
      {
        OFFSET -0.633741 -33.349279 19.614675
        CHANNELS 3 Xrotation Yrotation Zrotation
        End Site
        {
          OFFSET -0.190122 -10.004784 5.884402
        }
      }
    }
  }
  JOINT RightUpLeg
  {
    OFFSET -10.014631 0.404759 -2.482655
    CHANNELS 3 Xrotation Yrotation Zrotation
    JOINT RightLeg
    {
      OFFSET 1.865041 -30.879068 8.259322
      CHANNELS 3 Xrotation Yrotation Zrotation
      JOINT RightFoot
      {
        OFFSET -6.913018 -39.753150 16.368861
        CHANNELS 3 Xrotation Yrotation Zrotation
        End Site
        {
          OFFSET -2.073905 -11.925945 4.910658
        }
      }
    }
  }
}
MOTION
Frames: 9
Frame Time: 0.083333
0.374936 59.985614 0.757863 0.543528 -0.055530 -0.076657 0.000000 0.000000 0.000000 -0.579213 0.006073 0.058574 0.038357 0.071789 0.027299 0.066863 3.596589 -17.803129 0.048128 0.112870 0.030984 -3.240685 -1.425530 -0.050389 -1.518120 1.170751 0.177618 0.000000 0.000000 0.000000 0.000000 0.000000 0.000000 0.048128 0.112870 0.030984 -1.660592 0.371408 -0.267044 0.572833 -0.322387 0.226335 0.000000 0.000000 0.000000 0.000000 0.000000 0.000000 -0.679808 0.049966 0.540206 0.058121 -0.065371 -0.583862 0.000000 0.000000 0.000000 0.246227 0.249105 0.592612 0.962782 -2.403407 -5.325534 0.000000 0.000000 0.000000
0.716387 59.977596 1.415872 0.548364 -0.057190 -0.079771 0.000000 0.000000 0.000000 -0.585097 0.007183 0.061594 0.038866 0.073691 0.027927 26.724798 3.767597 -17.770025 0.049729 0.116422 0.031481 -2.744121 -1.221706 -0.079049 -1.214352 0.994078 0.168168 0.000000 0.000000 0.000000 0.000000 0.000000 0.000000 0.049729 0.116422 0.031481 -1.416223 0.300842 -0.251129 0.559830 -0.276308 0.197000 0.000000 0.000000 0.000000 0.000000 0.000000 0.000000 -0.584886 0.048720 0.506002 0.090500 -0.054062 -0.523820 0.000000 0.000000 0.000000 0.387557 0.263215 0.633974 0.785773 -2.498961 -5.598805 0.000000 0.000000 0.000000
1.386092 59.854667 2.841668 0.548603 -0.057266 -0.079914 0.000000 0.000000 0.000000 -0.585345 0.007245 0.061736 0.038886 0.073774 0.027956 -179.312162 2.461833 -17.797475 0.049764 0.116579 0.031501 -6.334528 -2.887905 -0.316859 -2.504224 2.308412 0.460472 0.000000 0.000000 0.000000 0.000000 0.000000 0.000000 0.049764 0.116579 0.031501 -3.276782 0.624348 -0.721693 1.455748 -0.630813 0.518469 0.000000 0.000000 0.000000 0.000000 0.000000 0.000000 -1.390887 0.142273 1.338532 0.523028 -0.123595 -1.291718 0.000000 0.000000 0.000000 1.084656 0.193085 -0.251474 -1.621518 -1.519246 -2.838231 0.000000 0.000000 0.000000
1.950466 59.660647 4.565806 1.286450 -0.162837 -0.247007 0.000000 0.000000 0.000000 -1.408263 0.034970 0.203845 0.099628 0.205823 0.075633 -178.840825 2.044017 -17.587020 0.167114 0.345830 0.106119 -5.918875 -2.932885 -0.701934 -1.528650 2.198451 0.670869 0.000000 0.000000 0.000000 0.000000 0.000000 0.000000 0.167114 0.345830 0.106119 -2.986291 0.321084 -1.189622 1.636255 -0.526136 0.765157 0.000000 0.000000 0.000000 0.000000 0.000000 0.000000 -1.004245 0.262851 1.734680 1.231149 -0.130510 -1.400778 0.000000 0.000000 0.000000 2.283246 0.219805 -0.751917 -3.701532 -1.468809 -2.397524 0.000000 0.000000 0.000000
2.415495 59.505681 6.317944 1.345316 -0.264468 -0.455584 0.000000 0.000000 0.000000 -1.544740 0.114709 0.414096 0.122609 0.318205 0.110715 -178.412121 0.565271 -17.358409 0.288705 0.578415 0.169597 -5.307900 -2.915601 -0.975162 -1.048505 2.002554 0.848358 0.000000 0.000000 0.000000 0.000000 0.000000 0.000000 0.288705 0.578415 0.169597 -2.268262 -0.098265 -1.775262 1.172882 -0.291008 1.192786 0.000000 0.000000 0.000000 0.000000 0.000000 0.000000 0.870697 0.501307 1.922150 0.797866 -0.196706 -1.279971 0.000000 0.000000 0.000000 2.536218 0.234799 -1.185437 -3.265206 -1.628217 -2.032676 0.000000 0.000000 0.000000
2.875510 59.462782 7.893314 1.561271 -0.387386 -0.700908 0.000000 0.000000 0.000000 -1.706229 0.261006 0.674566 0.128561 0.435550 0.148727 -178.059853 -1.425349 -17.083133 0.264140 0.767859 0.124065 -4.932774 -2.851110 -1.125676 -1.578951 1.840356 0.864236 0.000000 0.000000 0.000000 0.000000 0.000000 0.000000 0.264140 0.767859 0.124065 -1.610148 -0.363792 -2.066247 1.556264 -0.171848 1.406389 0.000000 0.000000 0.000000 0.000000 0.000000 0.000000 3.855587 0.827199 2.172984 -1.908117 -0.310291 -1.325641 0.000000 0.000000 0.000000 2.812172 0.277911 -1.661015 -2.995448 -1.610682 -1.124439 0.000000 0.000000 0.000000
3.497679 59.378758 9.092068 2.031589 -0.513425 -0.941139 0.000000 0.000000 0.000000 -2.087874 0.411020 0.931855 0.141101 0.534747 0.182230 -177.919470 -1.850607 -17.010614 0.192898 0.826489 0.148060 -4.851147 -2.629892 -0.932991 -1.924119 1.797663 0.576097 0.000000 0.000000 0.000000 0.000000 0.000000 0.000000 0.192898 0.826489 0.148060 -1.264505 -0.263361 -2.151507 1.945546 -0.141210 1.502552 0.000000 0.000000 0.000000 0.000000 0.000000 0.000000 3.759021 0.949539 2.155339 -1.321979 -0.434606 -1.271520 0.000000 0.000000 0.000000 3.627630 0.340906 -2.198172 -2.499090 -1.864397 -0.611178 0.000000 0.000000 0.000000
4.056389 59.263974 9.553739 2.416425 -0.600501 -1.106900 0.000000 0.000000 0.000000 -2.433584 0.529095 1.120746 0.139444 0.577548 0.193889 -177.754169 -1.930846 -16.926177 0.123863 0.606075 0.152251 -5.388183 -2.678545 -1.001318 -2.233133 2.007423 0.718563 0.000000 0.000000 0.000000 0.000000 0.000000 0.000000 0.123863 0.606075 0.152251 -1.291274 -0.040686 -2.110287 2.232502 -0.194335 1.555233 0.000000 0.000000 0.000000 0.000000 0.000000 0.000000 4.390307 1.058936 1.805524 -1.413771 -0.667890 -1.159311 0.000000 0.000000 0.000000 4.331819 0.317773 -2.895416 -2.957645 -2.391746 -1.112179 0.000000 0.000000 0.000000
4.422525 59.122804 8.674293 2.684344 -0.626254 -1.149534 0.000000 0.000000 0.000000 -2.689637 0.565425 1.174242 0.139788 0.606488 0.202307 -177.499470 -1.849046 -16.799820 0.075439 0.382550 0.139958 -6.716507 -3.108532 -1.110773 -1.951298 2.550715 0.936075 0.000000 0.000000 0.000000 0.000000 0.000000 0.000000 0.075439 0.382550 0.139958 -1.578297 0.197611 -1.719375 2.650251 -0.331219 1.312369 0.000000 0.000000 0.000000 0.000000 0.000000 0.000000 5.072549 1.184160 1.436752 -2.658056 -0.845442 -0.948135 0.000000 0.000000 0.000000 4.191624 0.236273 -3.457765 -3.844703 -2.936040 -2.250408 0.000000 0.000000 0.000000
